<svg width="48" height="48" viewBox="0 0 48 48" fill="none" xmlns="http://www.w3.org/2000/svg">
<path d="M14.2502 9.00001C12.2702 9.00001 10.5062 10.29 9.93773 12.1875L7.87523 19.0785L4.96823 18.0945L4.03223 20.9055L6.98423 21.891L6.04673 25.0785C6.01077 25.216 5.9951 25.358 6.00023 25.5V37.5C6.00023 38.325 6.67523 39 7.50023 39H12.0002L12.5162 37.5H35.4842L36.0002 39H40.5002C41.3252 39 42.0002 38.325 42.0002 37.5V36.234C42.0062 36.159 42.0062 36.0765 42.0002 36V25.5C42.0054 25.358 41.9897 25.216 41.9537 25.0785L41.0162 21.891L43.9682 20.907L43.0307 18.093L40.1252 19.0785L38.0627 12.1875C37.7817 11.2634 37.2105 10.4544 36.4338 9.88033C35.6571 9.30622 34.7161 8.99755 33.7502 9.00001H14.2502ZM14.2502 12H33.7502C34.4177 12 35.0102 12.4395 35.2037 13.0785L37.1252 19.5H10.8752L12.7967 13.0785C12.9917 12.4335 13.5827 12 14.2502 12V12ZM9.98423 22.5H38.0162L39.0002 25.782V34.5H9.00023V25.7805L9.98423 22.5ZM12.7502 24C12.1535 24 11.5812 24.2371 11.1592 24.659C10.7373 25.081 10.5002 25.6533 10.5002 26.25C10.5002 26.8468 10.7373 27.419 11.1592 27.841C11.5812 28.263 12.1535 28.5 12.7502 28.5C13.347 28.5 13.9193 28.263 14.3412 27.841C14.7632 27.419 15.0002 26.8468 15.0002 26.25C15.0002 25.6533 14.7632 25.081 14.3412 24.659C13.9193 24.2371 13.347 24 12.7502 24ZM35.2502 24C34.6535 24 34.0812 24.2371 33.6592 24.659C33.2373 25.081 33.0002 25.6533 33.0002 26.25C33.0002 26.8468 33.2373 27.419 33.6592 27.841C34.0812 28.263 34.6535 28.5 35.2502 28.5C35.847 28.5 36.4193 28.263 36.8412 27.841C37.2632 27.419 37.5002 26.8468 37.5002 26.25C37.5002 25.6533 37.2632 25.081 36.8412 24.659C36.4193 24.2371 35.847 24 35.2502 24ZM18.0002 28.5L16.1252 33H19.3592L20.0162 31.5H27.9842L28.6412 33H31.8752L30.0002 28.5H18.0002Z" fill="black"/>
</svg>
